<svg xmlns="http://www.w3.org/2000/svg" xmlns:xlink="http://www.w3.org/1999/xlink" version="1.1" x="0px" y="0px" viewBox="0 0 100 125" style="enable-background:new 0 0 100 100;" xml:space="preserve"><g><g><path d="M39.768,39.674c0.28,0.422,0.561,0.843,0.822,1.271c1.368,2.239,2.247,4.801,2.542,7.409    c0.093,0.819,0.665,1.504,1.454,1.742c0.196,0.059,0.396,0.088,0.595,0.088c0.599,0,1.181-0.262,1.58-0.736    c1.018-1.212,3.993-2.834,6.87-4.403c5.819-3.172,12.414-6.768,13.012-11.802c0.281-2.368-0.775-4.655-3.143-6.797    c-3.145-2.846-7.179-2.865-11.343-0.238c-2.61-2.386-6.657-3.117-9.899-1.606c-3.767,1.754-5.917,6.283-4.895,10.311    C37.834,36.764,38.861,38.31,39.768,39.674z M44,28.341c0.6-0.279,1.26-0.412,1.926-0.412c1.033,0,2.079,0.319,2.927,0.903    c-0.441,0.423-0.882,0.875-1.321,1.356c-0.768,0.841-0.708,2.146,0.133,2.914s2.146,0.708,2.914-0.133    c1.901-2.083,6.695-6.59,10.154-3.465c1.318,1.194,1.929,2.288,1.814,3.252c-0.347,2.918-6.44,6.241-10.89,8.667    c-1.902,1.037-3.663,1.997-5.119,2.947c-0.552-1.958-1.372-3.845-2.428-5.575c-0.289-0.473-0.598-0.938-0.907-1.404    c-0.794-1.195-1.545-2.325-1.842-3.494C40.829,31.799,42.037,29.255,44,28.341z"/><path d="M93.751,45.766l-7.702-10.824c-0.253-0.356-0.774-1.086-1.546-1.661c1.316-4.087,2.546-8.2,3.66-12.334    c0.203-0.753,0.625-2.322-0.31-3.737c-0.932-1.411-2.542-1.642-3.316-1.752L38.695,8.897c-0.831-0.12-1.658,0.281-2.079,1.012    c-5.792,10.049-10.965,20.546-15.43,31.276c-0.539-0.354-1.166-0.59-1.864-0.68c-1.573-0.202-3.263,0.355-4.397,1.46    c-1.648,1.608-2.109,3.783-2.48,5.529c-1.984,9.353-4.516,18.697-7.524,27.77c-0.209,0.631-0.089,1.288,0.256,1.8    c-0.032,0.073-0.068,0.145-0.094,0.218c-0.273,0.772-0.211,1.579,0.174,2.271c0.726,1.307,2.37,1.72,4.613,2.161    c0.305,0.06,0.563,0.106,0.721,0.151c1.629,0.465,3.263,0.913,4.901,1.346c3.247,0.856,6.57,1.663,9.878,2.396    c13.215,2.926,26.751,4.805,40.234,5.583c0.205,0.012,0.47,0.027,0.773,0.027c1.084,0,2.662-0.194,3.759-1.433    c0.522-0.589,0.821-1.326,0.921-2.107c0.206-0.211,0.385-0.451,0.488-0.748c2.909-8.392,7.025-16.294,12.235-23.487    c0.909-1.256,2.474-3.429,2.251-5.866l6.884-5.106c0.569-0.423,1.521-1.129,1.919-2.349    C95.471,48.183,94.266,46.489,93.751,45.766z M39.497,13.179l44.455,6.362c0.119,0.017,0.219,0.033,0.301,0.048    c-0.019,0.079-0.042,0.173-0.072,0.286c-3.725,13.814-8.619,27.409-14.539,40.433c-5.035,1.605-10.053,3.354-14.966,5.227    c-0.423,0.161-0.815,0.323-1.185,0.476c-2.051,0.849-2.051,0.849-2.937-0.187l-0.149-0.175c-1.641-1.922-3.684-4.312-6.978-4.635    c-1.806-0.172-3.492,0.382-4.728,0.788c-2.11,0.696-4.215,1.434-6.313,2.193l-4.52-8.509c-1.32-2.484-2.829-5.317-4.864-7.797    C27.656,35.845,33.197,24.244,39.497,13.179z M9.868,73.301c2.597-8.192,4.833-16.561,6.613-24.95    c0.066-0.311,0.134-0.631,0.21-0.949c3.15,2.141,5.297,5.813,7.532,10.021l3.9,7.341c0.02,0.254,0.092,0.503,0.206,0.737    c-3.703,1.417-7.37,2.923-10.971,4.517c-0.17,0.075-0.49,0.203-0.915,0.375C13.676,71.507,11.527,72.452,9.868,73.301z     M65.843,87.075c-13.262-0.767-26.579-2.614-39.579-5.493c-3.254-0.722-6.523-1.515-9.718-2.357    c-1.611-0.425-3.219-0.867-4.82-1.323c-0.229-0.066-0.609-0.145-1.059-0.233c-0.05-0.01-0.106-0.021-0.168-0.033    c1.29-0.74,3.548-1.831,7.486-3.416c0.484-0.195,0.848-0.343,1.042-0.429c6.817-3.017,13.871-5.731,20.963-8.069    c1.191-0.393,2.169-0.685,3.036-0.601c1.639,0.16,2.904,1.641,4.243,3.208l0.151,0.178c0.46,0.538,0.913,0.96,1.358,1.286    c0.054,0.352,0.2,0.694,0.441,0.989c4.603,5.634,9.987,10.555,16.086,14.68c0.649,0.439,1.264,0.854,1.554,1.306    c0.063,0.098,0.097,0.202,0.112,0.283C66.805,87.086,66.477,87.11,65.843,87.075z M80.44,61.024    c-4.868,6.723-8.815,14.04-11.771,21.781c-0.381-0.295-0.767-0.567-1.135-0.816c-4.951-3.35-9.448-7.309-13.4-11.791    c0.316-0.12,0.628-0.249,0.934-0.376c0.336-0.139,0.693-0.286,1.079-0.434c4.942-1.884,9.992-3.639,15.058-5.247    c0.36-0.018,0.71-0.122,1.012-0.316c0.903-0.283,1.806-0.572,2.709-0.845c1.09-0.329,1.707-1.48,1.378-2.571    c-0.226-0.749-0.843-1.266-1.56-1.414c0.373-0.849,0.741-1.701,1.106-2.555c0.183-0.034,0.362-0.085,0.527-0.166    c0.6,0.078,1.184,0.114,1.735,0.147c0.462,0.028,0.923,0.056,1.38,0.111c1.215,0.146,2.171,0.615,2.38,1.166    C82.208,58.585,81.015,60.232,80.44,61.024z M90.46,49.159l-6.474,4.8c-1.028-0.791-2.385-1.326-3.999-1.521    c-0.535-0.064-1.079-0.1-1.622-0.133c-0.26-0.016-0.509-0.036-0.76-0.055c1.94-4.764,3.742-9.589,5.406-14.46l7.379,10.368    c0.253,0.355,0.38,0.575,0.443,0.709C90.713,48.971,90.547,49.095,90.46,49.159z"/></g></g></svg>