<svg xmlns="http://www.w3.org/2000/svg" data-name="Layer 1" viewBox="0 0 31.64453 59.511325" x="0px" y="0px"><title>call</title><path d="M3228.01465,1384.40692a7.929,7.929,0,0,1-3.28516-.6875,7.58446,7.58446,0,0,1-1.04687-.57812l-2.80762-2.13574a2.73057,2.73057,0,0,1-.835-3.32812l3.46191-7.5332c0.67383-1.46777,2.10938-2.208,3.27539-1.68457l3.86426,1.74023c2.0625,0.93066,5.0625-1.03809,6.55859-4.293l3.19727-6.959a7.9432,7.9432,0,0,0,.53223-5.875,3.132,3.132,0,0,0-1.56836-1.81641c-0.02246-.01074-0.04492-0.02148-0.06641-0.0332l-3.79687-1.709a2.00863,2.00863,0,0,1-1.0459-1.14941,3.19879,3.19879,0,0,1,.166-2.4209l3.46191-7.5332a2.76268,2.76268,0,0,1,3.06348-1.55762l3.40137,0.67481c0.02344,0.00391.0459,0.00977,0.06836,0.01563a7.50224,7.50224,0,0,1,1.12891.40234,9.03894,9.03894,0,0,1,4.60254,5.32519c2.15137,5.74121,1.06152,14.58887-2.84375,23.09082C3242.49219,1377.26434,3234.5166,1384.40692,3228.01465,1384.40692Zm-2.05762-14.123a1.26157,1.26157,0,0,0-.63867.69531l-3.46094,7.53223a0.74342,0.74342,0,0,0,.23047.9043l2.749,2.09473a5.86716,5.86716,0,0,0,.71387.38574c5.65723,2.54395,14.88379-4.94531,20.13281-16.36914,3.69043-8.03516,4.75976-16.29395,2.78809-21.55469a7.00731,7.00731,0,0,0-3.55176-4.20312,5.5027,5.5027,0,0,0-.79981-0.28711l-3.36523-.668a0.77472,0.77472,0,0,0-.85742.43066l-3.46094,7.5332a1.10766,1.10766,0,0,0-.08691.93359l3.832,1.71777c0.02539,0.01172.0498,0.02441,0.07422,0.03711a5.04758,5.04758,0,0,1,2.5459,2.9043,9.95542,9.95542,0,0,1-.58691,7.41211l-3.19824,6.96c-2.01074,4.37793-6.05762,6.69434-9.19531,5.28125Z" transform="translate(-3219.78728 -1336.79786)"/></svg>